M48
; DRILL file {KiCad 9.0.7} date 2026-02-16T10:45:57+0100
; FORMAT={-:-/ absolute / metric / decimal}
; #@! TF.CreationDate,2026-02-16T10:45:57+01:00
; #@! TF.GenerationSoftware,Kicad,Pcbnew,9.0.7
; #@! TF.FileFunction,Plated,1,2,PTH
FMAT,2
METRIC
; #@! TA.AperFunction,Plated,PTH,ViaDrill
T1C0.400
; #@! TA.AperFunction,Plated,PTH,ComponentDrill
T2C0.600
%
G90
G05
T1
X117.8Y-77.0
X117.8Y-85.5
X117.8Y-94.0
X117.8Y-102.5
X117.8Y-111.0
X117.8Y-119.5
X117.8Y-128.0
X122.775Y-77.75
X126.775Y-80.25
X126.825Y-128.0
X133.775Y-78.5
X135.8Y-78.5
X135.8Y-127.775
X142.75Y-126.775
X144.775Y-79.0
X144.775Y-127.25
X144.8Y-77.0
X153.8Y-77.0
X153.8Y-128.0
X162.762Y-79.353
X162.8Y-77.0
X162.8Y-128.0
X171.8Y-77.0
X171.8Y-128.0
X180.8Y-77.0
X180.8Y-128.0
X189.775Y-128.0
X189.8Y-77.0
X198.775Y-102.5
X198.775Y-119.5
X198.8Y-77.0
X198.8Y-85.5
X198.8Y-94.0
X198.8Y-111.0
X198.8Y-128.0
T2
G00X196.175Y-98.18
M15
G01X195.575Y-98.18
M16
G05
G00X196.175Y-106.82
M15
G01X195.575Y-106.82
M16
G05
G00X199.975Y-98.18
M15
G01X199.375Y-98.18
M16
G05
G00X199.975Y-106.82
M15
G01X199.375Y-106.82
M16
G05
M30
