G04 #@! TF.GenerationSoftware,KiCad,Pcbnew,9.0.7*
G04 #@! TF.CreationDate,2026-02-16T10:46:00+01:00*
G04 #@! TF.ProjectId,businesscard,62757369-6e65-4737-9363-6172642e6b69,1*
G04 #@! TF.SameCoordinates,Original*
G04 #@! TF.FileFunction,Paste,Top*
G04 #@! TF.FilePolarity,Positive*
%FSLAX46Y46*%
G04 Gerber Fmt 4.6, Leading zero omitted, Abs format (unit mm)*
G04 Created by KiCad (PCBNEW 9.0.7) date 2026-02-16 10:46:00*
%MOMM*%
%LPD*%
G01*
G04 APERTURE LIST*
G04 Aperture macros list*
%AMRoundRect*
0 Rectangle with rounded corners*
0 $1 Rounding radius*
0 $2 $3 $4 $5 $6 $7 $8 $9 X,Y pos of 4 corners*
0 Add a 4 corners polygon primitive as box body*
4,1,4,$2,$3,$4,$5,$6,$7,$8,$9,$2,$3,0*
0 Add four circle primitives for the rounded corners*
1,1,$1+$1,$2,$3*
1,1,$1+$1,$4,$5*
1,1,$1+$1,$6,$7*
1,1,$1+$1,$8,$9*
0 Add four rect primitives between the rounded corners*
20,1,$1+$1,$2,$3,$4,$5,0*
20,1,$1+$1,$4,$5,$6,$7,0*
20,1,$1+$1,$6,$7,$8,$9,0*
20,1,$1+$1,$8,$9,$2,$3,0*%
G04 Aperture macros list end*
%ADD10RoundRect,0.250000X-0.325000X-0.450000X0.325000X-0.450000X0.325000X0.450000X-0.325000X0.450000X0*%
G04 APERTURE END LIST*
D10*
X178750000Y-77000000D03*
X180800000Y-77000000D03*
X178750000Y-128000000D03*
X180800000Y-128000000D03*
X124775000Y-128000000D03*
X126825000Y-128000000D03*
X196750000Y-94000000D03*
X198800000Y-94000000D03*
X142750000Y-128000000D03*
X144800000Y-128000000D03*
X115750000Y-111000000D03*
X117800000Y-111000000D03*
X115750000Y-128000000D03*
X117800000Y-128000000D03*
X196750000Y-85500000D03*
X198800000Y-85500000D03*
X124750000Y-77000000D03*
X126800000Y-77000000D03*
X196750000Y-119500000D03*
X198800000Y-119500000D03*
X160750000Y-77000000D03*
X162800000Y-77000000D03*
X115750000Y-102500000D03*
X117800000Y-102500000D03*
X160750000Y-128000000D03*
X162800000Y-128000000D03*
X115750000Y-94000000D03*
X117800000Y-94000000D03*
X115750000Y-119500000D03*
X117800000Y-119500000D03*
X115750000Y-85500000D03*
X117800000Y-85500000D03*
X187725000Y-128000000D03*
X189775000Y-128000000D03*
X169750000Y-77000000D03*
X171800000Y-77000000D03*
X196750000Y-111000000D03*
X198800000Y-111000000D03*
X115750000Y-77000000D03*
X117800000Y-77000000D03*
X196750000Y-128000000D03*
X198800000Y-128000000D03*
X151750000Y-128000000D03*
X153800000Y-128000000D03*
X133750000Y-77000000D03*
X135800000Y-77000000D03*
X133750000Y-128000000D03*
X135800000Y-128000000D03*
X187750000Y-77000000D03*
X189800000Y-77000000D03*
X151750000Y-77000000D03*
X153800000Y-77000000D03*
X142750000Y-77000000D03*
X144800000Y-77000000D03*
X169750000Y-128000000D03*
X171800000Y-128000000D03*
X196750000Y-102500000D03*
X198800000Y-102500000D03*
X196750000Y-77000000D03*
X198800000Y-77000000D03*
M02*
